<?xml version="1.0" encoding="UTF-8" standalone="no"?>
<!DOCTYPE svg PUBLIC "-//W3C//DTD SVG 1.1//EN" "http://www.w3.org/Graphics/SVG/1.1/DTD/svg11.dtd">
<svg xmlns="http://www.w3.org/2000/svg" version="1.1" viewBox="0 0 725 725" width="725.0pt" height="725.0pt">
<path d="M 0.00 0.00 L 725.00 0.00 L 725.00 725.00 L 0.00 725.00 L 0.00 0.00 Z" fill="#ffffff" />
<path d="M 386.58 110.82 C 394.85 111.44 402.79 113.44 411.00 114.61 C 419.82 115.95 428.28 118.50 436.75 121.23 C 449.79 124.66 462.56 130.73 474.76 136.39 C 480.49 139.06 485.58 142.69 491.19 145.70 C 496.12 148.37 500.84 151.31 505.28 154.73 C 510.56 158.83 516.11 162.45 521.12 166.90 C 525.60 170.95 530.71 173.70 534.73 178.28 C 538.02 182.04 541.52 185.43 545.23 188.76 C 549.22 192.35 551.71 196.81 555.17 200.83 C 557.25 203.27 559.29 205.74 561.29 208.24 C 553.79 210.93 547.03 215.19 539.56 217.90 C 533.37 208.78 525.08 202.31 517.69 194.30 C 511.21 187.53 503.49 182.59 496.33 176.66 C 491.68 172.69 486.42 169.89 481.18 166.82 C 480.82 172.23 480.71 177.58 480.89 183.01 C 480.88 185.63 481.09 188.67 480.18 191.16 C 475.82 192.24 471.24 192.32 466.81 193.13 C 461.96 194.00 457.07 194.10 452.18 194.55 C 450.01 190.76 447.71 187.35 443.68 185.35 C 437.24 182.00 430.45 182.70 423.72 184.68 C 416.38 186.65 410.26 190.41 403.50 193.68 C 401.25 188.41 398.99 183.29 397.93 177.61 C 406.61 176.83 415.12 174.91 423.81 174.33 C 435.25 173.40 446.58 171.48 458.03 170.63 C 457.45 165.17 456.59 160.17 458.57 154.86 C 454.03 151.80 449.06 150.18 443.91 148.53 C 418.36 138.48 390.84 133.37 363.40 133.33 C 354.62 133.05 345.75 134.09 336.97 134.70 C 327.79 135.92 319.09 136.62 310.40 140.00 C 304.94 141.04 299.48 141.34 294.16 143.22 C 293.84 148.71 293.73 154.17 294.56 159.63 C 295.48 165.77 294.80 171.74 295.27 177.93 C 295.35 180.56 295.88 183.93 294.30 186.22 C 292.01 189.48 288.67 192.02 286.01 195.00 C 282.12 199.33 277.98 203.40 273.95 207.59 C 280.86 214.16 287.70 220.82 294.24 227.76 C 296.97 230.65 299.90 233.32 302.89 235.94 C 309.85 233.19 316.29 229.87 323.67 228.32 C 332.33 225.87 341.04 224.25 350.02 223.65 C 350.35 224.39 350.67 225.14 351.00 225.89 C 346.95 233.07 344.95 240.81 342.25 248.51 C 329.93 250.70 318.06 254.03 307.23 260.47 C 294.02 267.47 282.23 277.25 272.93 288.95 C 268.50 295.06 264.54 301.62 261.15 308.37 C 259.35 311.73 257.25 314.79 256.16 318.52 C 254.17 325.24 251.20 331.12 250.25 338.15 C 249.44 344.37 248.18 350.67 248.16 356.95 C 248.30 363.95 248.73 370.83 250.41 377.66 C 251.56 382.36 252.03 387.18 253.15 391.89 C 245.64 393.97 239.42 398.52 231.78 400.12 C 230.03 391.15 226.54 382.96 226.37 374.04 C 213.60 371.57 200.72 369.78 187.99 367.05 C 182.92 365.90 177.49 365.75 172.57 364.07 C 170.06 363.35 169.81 360.31 169.11 358.20 C 167.90 352.75 165.84 347.72 163.29 342.76 C 160.90 338.15 160.27 333.17 158.57 328.35 C 157.64 325.23 154.33 324.41 151.64 323.37 C 147.01 321.91 142.58 320.19 138.12 318.28 C 137.01 325.31 134.98 332.00 134.95 339.19 C 133.83 352.22 132.47 364.55 134.64 377.61 C 135.30 381.08 135.12 384.52 135.02 388.02 C 134.83 393.65 137.47 398.17 137.82 403.70 C 138.28 410.60 141.12 416.65 142.31 423.48 C 143.55 430.22 146.15 436.37 148.67 442.70 C 151.38 452.33 156.56 461.55 161.43 470.28 C 163.14 473.62 164.80 476.97 166.92 480.08 C 170.48 485.30 173.20 490.83 177.17 495.78 C 179.75 499.03 182.29 502.28 184.43 505.84 C 185.38 499.87 187.95 494.44 188.58 488.40 C 189.36 481.50 190.94 474.79 192.54 468.04 C 197.71 468.62 202.51 470.30 207.44 471.85 C 222.45 475.76 236.99 481.13 252.13 484.63 L 252.64 482.84 C 255.97 483.27 258.92 484.62 261.88 486.14 C 265.62 488.06 269.47 489.75 273.33 491.39 C 271.65 498.84 270.03 506.23 267.69 513.51 C 259.51 511.82 251.76 508.80 243.66 506.82 C 239.11 505.69 234.63 504.34 230.17 502.89 C 223.83 500.86 217.32 499.64 211.06 497.36 C 210.19 503.08 207.71 508.29 207.02 514.04 C 206.50 518.49 205.61 522.64 204.31 526.93 C 219.24 541.29 236.72 553.24 254.83 563.22 C 260.71 566.61 266.88 569.17 273.06 571.92 C 282.56 575.95 292.08 579.72 302.18 581.98 C 311.60 584.99 321.26 586.29 330.97 587.88 C 340.77 589.62 350.46 589.56 360.34 590.06 C 375.80 589.96 391.23 588.67 406.42 585.72 C 403.10 594.10 398.97 601.73 397.88 610.85 C 393.34 611.31 388.86 611.99 384.37 612.77 C 379.61 613.62 375.01 613.31 370.21 613.36 C 361.72 613.45 352.91 613.80 344.47 612.93 C 336.76 612.15 328.99 611.57 321.35 610.31 C 316.07 609.33 310.83 608.12 305.57 607.07 C 299.26 605.82 293.36 603.44 287.12 601.92 C 279.80 600.14 273.11 597.13 266.15 594.36 C 251.57 588.35 237.64 580.97 224.42 572.39 C 217.21 566.89 209.57 562.19 202.90 556.08 C 199.35 552.85 195.14 550.64 191.74 547.28 C 189.37 544.97 187.28 542.40 184.95 540.05 C 181.44 536.41 177.63 533.63 174.53 529.57 C 172.50 526.87 170.50 524.17 168.17 521.71 C 163.85 517.16 160.91 511.91 157.03 506.99 C 151.77 500.27 147.90 492.87 143.25 485.75 C 139.60 480.28 137.73 474.16 134.58 468.42 C 132.19 464.10 130.37 459.87 128.89 455.17 C 127.10 449.48 123.73 444.62 122.18 438.88 C 120.94 434.34 120.04 429.73 118.62 425.23 C 116.45 418.55 116.16 411.52 114.00 404.82 C 112.40 399.74 113.07 394.90 112.36 389.71 C 111.76 385.11 110.74 380.66 110.79 375.99 C 110.90 368.51 109.11 361.64 110.21 354.20 C 111.03 348.36 110.34 342.64 111.72 336.88 C 113.21 330.46 112.78 323.89 114.29 317.49 C 115.18 313.40 116.13 309.32 116.91 305.20 C 117.99 299.16 120.13 293.43 121.45 287.43 C 122.82 281.19 125.86 275.80 127.92 269.80 C 129.23 266.16 130.28 262.53 132.04 259.07 C 133.86 255.50 135.83 252.04 137.38 248.35 C 140.96 239.72 146.67 231.62 151.70 223.71 C 156.59 215.93 162.29 208.98 167.97 201.77 C 168.76 201.75 169.54 201.72 170.33 201.70 C 171.90 206.03 173.29 210.02 176.91 213.12 C 179.52 215.55 182.60 215.73 185.96 216.41 C 184.39 218.35 182.98 220.39 181.54 222.43 C 178.68 226.62 174.88 229.91 172.36 234.39 C 169.35 239.72 165.70 244.53 163.06 250.07 C 161.00 254.07 159.46 258.33 157.26 262.24 C 151.04 272.43 146.43 283.97 143.88 295.63 C 151.23 297.29 157.82 300.68 165.01 302.87 C 168.73 304.18 173.55 305.80 175.29 309.65 C 177.08 313.30 178.39 317.18 180.15 320.86 C 183.45 327.87 184.18 335.24 188.30 341.69 C 189.49 343.85 191.87 343.91 194.03 344.41 C 204.67 345.96 215.14 348.33 225.81 349.70 C 225.80 340.79 228.13 332.48 229.90 323.84 C 231.11 318.05 233.50 313.17 235.55 307.55 C 241.26 291.55 251.19 277.95 262.33 265.32 C 268.05 259.00 275.16 253.58 281.99 248.49 C 274.44 241.20 267.18 233.66 259.74 226.26 C 253.86 221.11 248.71 215.29 243.23 209.73 C 241.40 207.86 241.55 205.26 243.51 203.55 C 247.22 200.23 251.22 197.30 254.63 193.63 C 258.76 189.64 261.76 184.79 266.20 181.25 C 267.96 179.76 270.06 178.29 271.43 176.43 C 272.44 173.90 271.97 170.65 271.95 167.97 C 271.54 162.54 271.80 157.12 271.88 151.68 C 269.08 152.91 266.41 154.35 263.77 155.89 C 263.40 155.44 263.03 154.99 262.65 154.54 C 266.60 145.66 269.94 137.06 270.10 127.19 C 283.05 122.80 296.36 117.68 309.86 115.43 C 322.50 112.55 335.60 110.48 348.59 110.25 C 361.30 108.99 373.88 109.88 386.58 110.82 Z" fill="#578ddf" />
<path d="M 270.10 127.19 C 269.94 137.06 266.60 145.66 262.65 154.54 C 263.03 154.99 263.40 155.44 263.77 155.89 C 258.58 158.85 252.88 160.52 247.90 163.93 C 241.29 168.29 234.43 172.38 228.02 177.02 C 221.11 182.87 213.42 187.68 207.03 194.03 C 199.87 201.41 192.33 208.29 185.96 216.41 C 182.60 215.73 179.52 215.55 176.91 213.12 C 173.29 210.02 171.90 206.03 170.33 201.70 C 169.54 201.72 168.76 201.75 167.97 201.77 C 171.98 196.81 175.87 191.89 180.55 187.53 C 185.07 183.35 188.95 178.64 193.65 174.68 C 198.21 170.87 202.66 166.97 207.41 163.40 C 211.48 160.34 215.03 157.00 219.26 154.30 C 230.19 147.49 240.53 140.58 252.28 135.17 C 258.04 132.01 263.85 129.27 270.10 127.19 Z" fill="#85b0f0" />
<path d="M 363.40 133.33 C 390.84 133.37 418.36 138.48 443.91 148.53 C 449.06 150.18 454.03 151.80 458.57 154.86 C 456.59 160.17 457.45 165.17 458.03 170.63 C 446.58 171.48 435.25 173.40 423.81 174.33 C 415.12 174.91 406.61 176.83 397.93 177.61 C 398.99 183.29 401.25 188.41 403.50 193.68 C 404.97 198.13 406.03 202.65 407.98 206.93 C 409.67 210.61 410.63 213.97 411.16 217.99 C 411.71 222.49 414.72 225.47 416.24 229.93 C 416.93 231.91 417.15 233.95 417.49 236.00 C 404.28 229.28 390.04 225.74 375.39 224.01 C 366.87 223.27 358.55 222.31 350.02 223.65 C 341.04 224.25 332.33 225.87 323.67 228.32 C 316.29 229.87 309.85 233.19 302.89 235.94 C 299.90 233.32 296.97 230.65 294.24 227.76 C 287.70 220.82 280.86 214.16 273.95 207.59 C 277.98 203.40 282.12 199.33 286.01 195.00 C 288.67 192.02 292.01 189.48 294.30 186.22 C 295.88 183.93 295.35 180.56 295.27 177.93 C 294.80 171.74 295.48 165.77 294.56 159.63 C 293.73 154.17 293.84 148.71 294.16 143.22 C 299.48 141.34 304.94 141.04 310.40 140.00 C 319.09 136.62 327.79 135.92 336.97 134.70 C 345.75 134.09 354.62 133.05 363.40 133.33 Z" fill="#ffffff" />
<path d="M 271.88 151.68 C 271.80 157.12 271.54 162.54 271.95 167.97 C 271.97 170.65 272.44 173.90 271.43 176.43 C 270.06 178.29 267.96 179.76 266.20 181.25 C 261.76 184.79 258.76 189.64 254.63 193.63 C 251.22 197.30 247.22 200.23 243.51 203.55 C 241.55 205.26 241.40 207.86 243.23 209.73 C 248.71 215.29 253.86 221.11 259.74 226.26 C 267.18 233.66 274.44 241.20 281.99 248.49 C 275.16 253.58 268.05 259.00 262.33 265.32 C 251.19 277.95 241.26 291.55 235.55 307.55 C 233.50 313.17 231.11 318.05 229.90 323.84 C 228.13 332.48 225.80 340.79 225.81 349.70 C 215.14 348.33 204.67 345.96 194.03 344.41 C 191.87 343.91 189.49 343.85 188.30 341.69 C 184.18 335.24 183.45 327.87 180.15 320.86 C 178.39 317.18 177.08 313.30 175.29 309.65 C 173.55 305.80 168.73 304.18 165.01 302.87 C 157.82 300.68 151.23 297.29 143.88 295.63 C 146.43 283.97 151.04 272.43 157.26 262.24 C 159.46 258.33 161.00 254.07 163.06 250.07 C 165.70 244.53 169.35 239.72 172.36 234.39 C 174.88 229.91 178.68 226.62 181.54 222.43 C 182.98 220.39 184.39 218.35 185.96 216.41 C 192.33 208.29 199.87 201.41 207.03 194.03 C 213.42 187.68 221.11 182.87 228.02 177.02 C 234.43 172.38 241.29 168.29 247.90 163.93 C 252.88 160.52 258.58 158.85 263.77 155.89 C 266.41 154.35 269.08 152.91 271.88 151.68 Z" fill="#ffffff" />
<path d="M 481.18 166.82 C 486.42 169.89 491.68 172.69 496.33 176.66 C 503.49 182.59 511.21 187.53 517.69 194.30 C 525.08 202.31 533.37 208.78 539.56 217.90 C 543.14 223.45 548.11 227.80 551.57 233.42 C 556.17 240.48 559.61 248.14 564.48 255.05 C 567.21 260.48 569.85 265.97 572.57 271.41 C 575.52 279.05 578.56 286.76 580.48 294.74 C 581.63 299.36 583.41 303.75 584.77 308.30 C 586.38 313.57 585.93 319.00 587.41 324.31 C 588.60 328.80 589.32 333.17 589.22 337.84 C 589.04 342.73 591.15 347.11 591.04 351.98 C 590.92 356.67 590.40 361.33 590.54 366.03 C 583.06 357.95 574.98 350.42 567.04 342.79 C 559.06 349.29 552.62 357.10 545.20 364.18 C 542.28 366.97 539.40 369.81 536.63 372.75 C 533.31 370.27 530.10 367.66 526.86 365.08 C 522.37 361.45 517.20 358.91 512.33 355.62 C 507.64 352.44 503.02 349.14 498.25 346.06 C 497.21 347.40 496.17 348.74 495.12 350.08 C 494.93 340.15 492.60 330.31 490.29 320.55 C 485.89 309.21 483.80 298.65 476.53 289.18 C 474.56 285.92 472.88 282.59 470.51 279.59 C 465.37 273.12 461.18 266.62 454.90 261.14 C 452.16 258.57 448.65 256.22 447.51 252.48 C 446.13 248.40 445.39 244.14 444.01 240.05 C 442.55 235.72 441.08 231.40 439.74 227.03 C 437.92 221.13 434.87 215.79 433.13 209.87 C 431.91 205.78 430.72 201.68 429.28 197.66 C 436.89 196.30 444.59 196.14 452.18 194.55 C 457.07 194.10 461.96 194.00 466.81 193.13 C 471.24 192.32 475.82 192.24 480.18 191.16 C 481.09 188.67 480.88 185.63 480.89 183.01 C 480.71 177.58 480.82 172.23 481.18 166.82 Z" fill="#ffffff" />
<path d="M 443.68 185.35 C 447.71 187.35 450.01 190.76 452.18 194.55 C 444.59 196.14 436.89 196.30 429.28 197.66 C 430.72 201.68 431.91 205.78 433.13 209.87 C 434.87 215.79 437.92 221.13 439.74 227.03 C 441.08 231.40 442.55 235.72 444.01 240.05 C 445.39 244.14 446.13 248.40 447.51 252.48 C 448.65 256.22 452.16 258.57 454.90 261.14 C 461.18 266.62 465.37 273.12 470.51 279.59 C 472.88 282.59 474.56 285.92 476.53 289.18 C 470.73 293.95 461.76 295.09 454.56 296.41 C 451.91 292.50 448.53 289.13 445.63 285.37 C 443.15 282.20 440.55 279.18 437.35 276.71 C 432.81 273.27 429.12 269.44 424.11 266.68 C 418.83 263.79 414.36 260.18 408.81 257.79 C 402.74 255.20 397.11 252.52 390.64 251.06 C 382.65 249.27 375.04 247.36 366.79 247.38 C 358.72 247.39 350.19 247.01 342.25 248.51 C 344.95 240.81 346.95 233.07 351.00 225.89 C 350.67 225.14 350.35 224.39 350.02 223.65 C 358.55 222.31 366.87 223.27 375.39 224.01 C 390.04 225.74 404.28 229.28 417.49 236.00 C 417.15 233.95 416.93 231.91 416.24 229.93 C 414.72 225.47 411.71 222.49 411.16 217.99 C 410.63 213.97 409.67 210.61 407.98 206.93 C 406.03 202.65 404.97 198.13 403.50 193.68 C 410.26 190.41 416.38 186.65 423.72 184.68 C 430.45 182.70 437.24 182.00 443.68 185.35 Z" fill="#85b0f0" />
<path d="M 561.29 208.24 C 566.36 214.77 571.13 221.51 575.50 228.53 C 578.81 233.29 581.86 238.11 584.25 243.41 C 576.99 246.16 570.32 249.93 564.48 255.05 C 559.61 248.14 556.17 240.48 551.57 233.42 C 548.11 227.80 543.14 223.45 539.56 217.90 C 547.03 215.19 553.79 210.93 561.29 208.24 Z" fill="#85b0f0" />
<path d="M 584.25 243.41 C 587.48 250.43 591.34 257.19 594.36 264.29 C 596.65 271.53 600.62 277.69 602.15 285.13 C 603.10 289.65 604.25 294.05 605.73 298.42 C 607.88 304.48 607.82 310.92 610.14 316.95 C 611.97 321.71 611.05 326.24 611.82 331.16 C 612.45 335.65 613.76 339.75 613.30 344.36 C 612.89 349.09 613.14 353.22 614.08 357.87 C 614.94 361.84 614.08 365.48 613.51 369.40 C 612.96 372.96 613.18 376.45 613.31 380.02 C 613.48 384.57 612.40 389.20 611.80 393.74 C 610.10 408.77 606.27 423.77 602.27 438.33 C 600.38 445.06 597.27 451.26 595.05 457.90 C 592.82 464.47 589.20 469.90 586.28 476.31 C 583.11 483.28 579.04 489.59 575.18 496.18 C 567.40 508.48 558.44 519.13 549.27 530.28 C 545.47 534.81 540.86 538.48 536.88 542.87 C 532.69 547.43 527.94 551.29 523.04 555.04 C 522.04 555.32 521.04 555.60 520.04 555.86 C 520.80 547.79 521.84 538.05 518.54 530.40 C 515.26 523.51 510.05 517.70 502.57 515.42 C 495.98 512.80 489.26 512.90 482.35 513.84 C 481.90 512.17 481.44 510.52 481.06 508.83 C 479.73 500.42 480.14 491.92 478.91 483.50 C 465.97 481.78 453.14 481.39 440.21 480.60 C 433.69 480.16 425.82 478.09 419.58 480.52 C 413.58 482.65 407.80 485.50 401.90 487.89 C 397.46 489.68 392.94 490.21 388.13 491.27 C 383.10 492.37 378.01 493.13 372.93 493.96 C 375.06 503.46 375.48 513.27 376.99 522.90 C 377.70 533.99 380.95 544.57 381.14 555.68 C 370.03 554.34 359.03 552.02 348.03 549.98 C 343.84 555.60 341.89 562.22 338.21 568.10 C 335.65 572.43 333.46 576.97 330.89 581.31 C 323.38 578.48 316.94 573.93 309.78 570.43 C 312.34 564.01 316.37 558.54 319.38 552.36 C 322.74 545.53 327.05 539.27 330.49 532.50 C 331.92 529.93 333.26 526.90 335.39 524.84 C 337.19 524.14 339.55 524.64 341.40 524.91 C 345.77 525.78 350.13 526.53 354.54 527.13 C 353.69 523.91 352.91 520.72 352.89 517.36 C 352.87 511.00 351.32 504.98 350.69 498.68 C 350.42 497.18 350.37 495.01 349.30 493.85 C 347.66 493.35 345.87 493.25 344.18 493.08 C 346.85 489.70 349.83 486.20 351.02 481.98 C 352.05 478.33 352.02 474.20 352.14 470.43 C 361.79 471.44 371.18 470.33 380.76 469.37 C 386.21 468.73 391.44 466.64 396.84 465.38 C 404.62 463.06 412.42 459.83 418.97 454.96 C 422.31 452.56 426.01 450.77 429.29 448.31 C 440.45 439.23 450.34 429.25 457.70 416.77 C 462.25 408.41 466.64 400.31 469.04 391.01 C 471.06 382.98 473.36 375.33 473.31 367.23 C 473.22 360.35 474.30 353.87 473.00 347.02 C 471.63 339.53 471.49 332.64 468.36 325.57 C 465.81 319.80 464.62 314.12 461.39 308.71 C 458.98 304.68 456.91 300.46 454.56 296.41 C 461.76 295.09 470.73 293.95 476.53 289.18 C 483.80 298.65 485.89 309.21 490.29 320.55 C 492.60 330.31 494.93 340.15 495.12 350.08 C 496.17 348.74 497.21 347.40 498.25 346.06 C 503.02 349.14 507.64 352.44 512.33 355.62 C 517.20 358.91 522.37 361.45 526.86 365.08 C 530.10 367.66 533.31 370.27 536.63 372.75 C 539.40 369.81 542.28 366.97 545.20 364.18 C 552.62 357.10 559.06 349.29 567.04 342.79 C 574.98 350.42 583.06 357.95 590.54 366.03 C 590.40 361.33 590.92 356.67 591.04 351.98 C 591.15 347.11 589.04 342.73 589.22 337.84 C 589.32 333.17 588.60 328.80 587.41 324.31 C 585.93 319.00 586.38 313.57 584.77 308.30 C 583.41 303.75 581.63 299.36 580.48 294.74 C 578.56 286.76 575.52 279.05 572.57 271.41 C 569.85 265.97 567.21 260.48 564.48 255.05 C 570.32 249.93 576.99 246.16 584.25 243.41 Z" fill="#578ddf" />
<path d="M 366.79 247.38 C 375.04 247.36 382.65 249.27 390.64 251.06 C 397.11 252.52 402.74 255.20 408.81 257.79 C 414.36 260.18 418.83 263.79 424.11 266.68 C 429.12 269.44 432.81 273.27 437.35 276.71 C 440.55 279.18 443.15 282.20 445.63 285.37 C 448.53 289.13 451.91 292.50 454.56 296.41 C 456.91 300.46 458.98 304.68 461.39 308.71 C 464.62 314.12 465.81 319.80 468.36 325.57 C 471.49 332.64 471.63 339.53 473.00 347.02 C 474.30 353.87 473.22 360.35 473.31 367.23 C 473.36 375.33 471.06 382.98 469.04 391.01 C 466.64 400.31 462.25 408.41 457.70 416.77 C 450.34 429.25 440.45 439.23 429.29 448.31 C 426.01 450.77 422.31 452.56 418.97 454.96 C 412.42 459.83 404.62 463.06 396.84 465.38 C 391.44 466.64 386.21 468.73 380.76 469.37 C 371.18 470.33 361.79 471.44 352.14 470.43 C 343.32 469.44 334.30 467.79 325.75 465.43 C 317.31 462.35 308.89 458.67 301.45 453.58 C 297.34 451.04 293.25 448.64 289.79 445.20 C 286.38 441.84 282.45 439.05 279.16 435.60 C 273.74 429.57 268.47 423.60 264.71 416.35 C 260.01 408.57 256.68 400.23 253.15 391.89 C 252.03 387.18 251.56 382.36 250.41 377.66 C 248.73 370.83 248.30 363.95 248.16 356.95 C 248.18 350.67 249.44 344.37 250.25 338.15 C 251.20 331.12 254.17 325.24 256.16 318.52 C 257.25 314.79 259.35 311.73 261.15 308.37 C 264.54 301.62 268.50 295.06 272.93 288.95 C 282.23 277.25 294.02 267.47 307.23 260.47 C 318.06 254.03 329.93 250.70 342.25 248.51 C 350.19 247.01 358.72 247.39 366.79 247.38 Z" fill="#ffffff" />
<path d="M 368.97 297.41 C 374.36 298.42 379.77 299.18 384.76 301.32 C 389.38 303.18 393.64 306.40 397.68 309.31 C 400.25 311.15 402.37 313.44 404.39 315.87 C 399.60 321.60 394.08 326.56 388.94 331.95 C 381.44 325.68 373.59 320.61 363.47 320.27 C 356.37 320.17 347.80 320.58 342.01 325.11 C 336.70 329.05 331.44 333.01 327.92 338.70 C 324.45 344.42 321.83 351.23 322.00 358.00 C 322.12 364.52 323.01 370.96 326.32 376.69 C 330.16 383.33 335.52 389.28 342.56 392.57 C 351.72 397.32 362.46 397.64 372.32 395.16 C 378.53 393.46 383.16 389.64 388.22 385.87 C 392.23 389.74 396.01 393.74 400.49 397.10 C 402.33 398.76 404.54 399.87 404.03 402.75 C 401.15 406.48 396.40 408.89 392.60 411.62 C 386.28 416.08 379.42 417.68 372.19 419.99 C 368.57 421.09 365.06 420.58 361.35 420.53 C 357.26 420.44 352.79 420.86 348.82 419.79 C 343.92 418.51 339.20 416.46 334.56 414.47 C 324.44 410.00 315.49 402.73 309.79 393.18 C 306.14 386.98 302.25 381.53 300.87 374.38 C 300.04 369.93 298.98 365.42 298.77 360.90 C 298.89 347.21 302.21 333.85 310.21 322.60 C 315.73 315.96 321.86 309.89 329.14 305.18 C 333.93 301.82 339.58 300.27 345.16 298.69 C 352.89 296.46 361.04 295.91 368.97 297.41 Z" fill="#3fad48" />
<path d="M 138.12 318.28 C 142.58 320.19 147.01 321.91 151.64 323.37 C 154.33 324.41 157.64 325.23 158.57 328.35 C 160.27 333.17 160.90 338.15 163.29 342.76 C 165.84 347.72 167.90 352.75 169.11 358.20 C 169.81 360.31 170.06 363.35 172.57 364.07 C 177.49 365.75 182.92 365.90 187.99 367.05 C 200.72 369.78 213.60 371.57 226.37 374.04 C 226.54 382.96 230.03 391.15 231.78 400.12 C 233.40 405.99 236.55 411.43 238.66 417.18 C 241.61 425.10 246.68 430.76 251.10 437.83 C 253.25 441.34 256.03 444.27 258.71 447.36 C 261.91 450.36 259.76 454.47 259.01 458.08 C 256.50 466.25 254.88 474.59 252.64 482.84 L 252.13 484.63 C 236.99 481.13 222.45 475.76 207.44 471.85 C 202.51 470.30 197.71 468.62 192.54 468.04 C 190.94 474.79 189.36 481.50 188.58 488.40 C 187.95 494.44 185.38 499.87 184.43 505.84 C 182.29 502.28 179.75 499.03 177.17 495.78 C 173.20 490.83 170.48 485.30 166.92 480.08 C 164.80 476.97 163.14 473.62 161.43 470.28 C 156.56 461.55 151.38 452.33 148.67 442.70 C 146.15 436.37 143.55 430.22 142.31 423.48 C 141.12 416.65 138.28 410.60 137.82 403.70 C 137.47 398.17 134.83 393.65 135.02 388.02 C 135.12 384.52 135.30 381.08 134.64 377.61 C 132.47 364.55 133.83 352.22 134.95 339.19 C 134.98 332.00 137.01 325.31 138.12 318.28 Z" fill="#ffffff" />
<path d="M 494.17 372.28 C 499.50 373.97 502.72 378.10 507.66 381.23 C 514.43 385.36 520.57 390.36 527.40 394.40 C 531.19 396.61 534.34 399.93 538.25 401.84 C 539.80 402.52 541.16 401.17 542.33 400.33 C 550.92 392.18 559.29 383.70 567.43 375.09 C 572.51 380.16 577.34 385.51 582.67 390.31 C 584.42 392.03 586.91 393.89 587.80 396.23 C 587.66 402.38 585.91 408.64 584.71 414.68 C 580.16 430.84 574.97 447.29 567.31 462.28 C 562.97 471.22 557.21 479.57 552.22 488.21 C 548.13 495.37 542.54 501.06 537.60 507.58 C 535.95 509.60 534.32 511.97 532.18 513.49 C 531.57 513.50 530.95 513.40 530.33 513.21 C 526.72 511.96 523.35 509.81 519.97 508.05 C 515.03 505.31 509.53 503.31 504.87 500.14 C 502.79 499.00 502.93 495.53 502.61 493.46 C 502.16 484.93 500.91 476.50 500.87 467.94 C 500.70 465.97 500.90 463.06 499.49 461.50 C 493.15 459.69 485.97 460.38 479.41 459.64 C 470.61 458.69 461.82 458.20 452.99 457.84 C 455.91 454.81 458.89 451.84 461.79 448.79 C 467.62 442.71 472.09 434.95 477.13 428.04 C 481.13 422.61 482.82 416.73 485.53 410.64 C 487.41 406.24 489.60 402.34 490.37 397.56 C 491.18 392.78 492.44 388.12 493.55 383.41 C 494.42 379.63 494.01 376.10 494.17 372.28 Z" fill="#ffffff" />
<path d="M 253.15 391.89 C 256.68 400.23 260.01 408.57 264.71 416.35 C 268.47 423.60 273.74 429.57 279.16 435.60 C 282.45 439.05 286.38 441.84 289.79 445.20 C 293.25 448.64 297.34 451.04 301.45 453.58 C 308.89 458.67 317.31 462.35 325.75 465.43 C 334.30 467.79 343.32 469.44 352.14 470.43 C 352.02 474.20 352.05 478.33 351.02 481.98 C 349.83 486.20 346.85 489.70 344.18 493.08 C 339.01 492.70 334.15 491.40 329.12 490.26 C 315.61 487.07 302.89 481.61 290.86 474.75 C 287.10 472.33 283.57 469.75 279.35 468.13 C 278.50 471.79 277.89 475.49 277.10 479.15 C 276.19 483.40 274.51 487.17 273.33 491.39 C 269.47 489.75 265.62 488.06 261.88 486.14 C 258.92 484.62 255.97 483.27 252.64 482.84 C 254.88 474.59 256.50 466.25 259.01 458.08 C 259.76 454.47 261.91 450.36 258.71 447.36 C 256.03 444.27 253.25 441.34 251.10 437.83 C 246.68 430.76 241.61 425.10 238.66 417.18 C 236.55 411.43 233.40 405.99 231.78 400.12 C 239.42 398.52 245.64 393.97 253.15 391.89 Z" fill="#85b0f0" />
<path d="M 279.35 468.13 C 283.57 469.75 287.10 472.33 290.86 474.75 C 302.89 481.61 315.61 487.07 329.12 490.26 C 334.15 491.40 339.01 492.70 344.18 493.08 C 345.87 493.25 347.66 493.35 349.30 493.85 C 350.37 495.01 350.42 497.18 350.69 498.68 C 351.32 504.98 352.87 511.00 352.89 517.36 C 352.91 520.72 353.69 523.91 354.54 527.13 C 350.13 526.53 345.77 525.78 341.40 524.91 C 339.55 524.64 337.19 524.14 335.39 524.84 C 333.26 526.90 331.92 529.93 330.49 532.50 C 327.05 539.27 322.74 545.53 319.38 552.36 C 316.37 558.54 312.34 564.01 309.78 570.43 C 316.94 573.93 323.38 578.48 330.89 581.31 C 333.46 576.97 335.65 572.43 338.21 568.10 C 341.89 562.22 343.84 555.60 348.03 549.98 C 359.03 552.02 370.03 554.34 381.14 555.68 C 380.95 544.57 377.70 533.99 376.99 522.90 C 375.48 513.27 375.06 503.46 372.93 493.96 C 378.01 493.13 383.10 492.37 388.13 491.27 C 392.94 490.21 397.46 489.68 401.90 487.89 C 407.80 485.50 413.58 482.65 419.58 480.52 C 425.82 478.09 433.69 480.16 440.21 480.60 C 453.14 481.39 465.97 481.78 478.91 483.50 C 480.14 491.92 479.73 500.42 481.06 508.83 C 481.28 510.89 481.46 512.95 481.66 515.01 C 487.86 516.58 492.28 520.58 498.09 523.06 C 503.87 525.64 509.60 528.24 514.95 531.66 C 505.24 538.92 497.09 546.86 486.97 552.97 C 475.07 560.34 462.80 567.72 449.72 572.80 C 445.94 574.40 442.22 576.05 438.28 577.24 C 427.66 580.33 417.35 583.77 406.42 585.72 C 391.23 588.67 375.80 589.96 360.34 590.06 C 350.46 589.56 340.77 589.62 330.97 587.88 C 321.26 586.29 311.60 584.99 302.18 581.98 C 292.08 579.72 282.56 575.95 273.06 571.92 C 266.88 569.17 260.71 566.61 254.83 563.22 C 236.72 553.24 219.24 541.29 204.31 526.93 C 205.61 522.64 206.50 518.49 207.02 514.04 C 207.71 508.29 210.19 503.08 211.06 497.36 C 217.32 499.64 223.83 500.86 230.17 502.89 C 234.63 504.34 239.11 505.69 243.66 506.82 C 251.76 508.80 259.51 511.82 267.69 513.51 C 270.03 506.23 271.65 498.84 273.33 491.39 C 274.51 487.17 276.19 483.40 277.10 479.15 C 277.89 475.49 278.50 471.79 279.35 468.13 Z" fill="#ffffff" />
<path d="M 481.06 508.83 C 481.44 510.52 481.90 512.17 482.35 513.84 C 489.26 512.90 495.98 512.80 502.57 515.42 C 510.05 517.70 515.26 523.51 518.54 530.40 C 521.84 538.05 520.80 547.79 520.04 555.86 C 521.04 555.60 522.04 555.32 523.04 555.04 C 513.41 563.68 502.77 571.00 491.71 577.67 C 485.61 581.35 479.12 584.28 473.00 587.92 C 466.16 592.03 458.37 593.58 451.49 597.57 C 448.70 599.23 445.64 599.91 442.49 600.57 C 437.97 601.50 433.79 603.29 429.34 604.43 C 418.88 606.96 408.62 609.72 397.88 610.85 C 398.97 601.73 403.10 594.10 406.42 585.72 C 417.35 583.77 427.66 580.33 438.28 577.24 C 442.22 576.05 445.94 574.40 449.72 572.80 C 462.80 567.72 475.07 560.34 486.97 552.97 C 497.09 546.86 505.24 538.92 514.95 531.66 C 509.60 528.24 503.87 525.64 498.09 523.06 C 492.28 520.58 487.86 516.58 481.66 515.01 C 481.46 512.95 481.28 510.89 481.06 508.83 Z" fill="#85b0f0" />
</svg>